<?xml version="1.0" encoding="UTF-8"?>
<!DOCTYPE svg PUBLIC "-//W3C//DTD SVG 1.1//EN" "http://www.w3.org/Graphics/SVG/1.1/DTD/svg11.dtd">
<!-- Creator: CorelDRAW 2019 (64-Bit) -->
<svg xmlns="http://www.w3.org/2000/svg" xml:space="preserve" width="20.6167mm" height="6.2409mm" version="1.1" style="shape-rendering:geometricPrecision; text-rendering:geometricPrecision; image-rendering:optimizeQuality; fill-rule:evenodd; clip-rule:evenodd"
viewBox="0 0 2052.05 621.18"
 xmlns:xlink="http://www.w3.org/1999/xlink">
 <defs>
  <style type="text/css">
   <![CDATA[
    .fil0 {fill:white;fill-rule:nonzero}
   ]]>
  </style>
 </defs>
 <g id="Слой_x0020_1">
  <metadata id="CorelCorpID_0Corel-Layer"/>
  <path class="fil0" d="M807.81 181.08l10.2 32.2 14.34 0 -1.27 -51.01c-39.21,0 -78.41,0 -117.95,0l-0.96 51.01 14.35 0 9.56 -32.2 20.4 0c0,54.5 0,108.7 0,162.9l-12.11 9.24 0 10.2c16.57,0 38.89,0 55.47,0l0 -10.2 -11.79 -9.24c0,-54.2 0,-108.39 0,-162.9l19.76 0zm109.34 -0.32c19.45,0 25.5,10.52 25.5,28.37 0,8.29 0,17.54 0,26.14 0,17.86 -7.01,28.38 -25.82,28.38l-17.53 0c0,-30.92 0,-51.97 0,-82.88l17.85 0zm22.63 156.25c5.74,15.25 7.65,28.32 26.14,28 6.38,0 15.31,-0.96 21.36,-3.82l0 -11.79c-8.93,1.59 -13.71,-8.87 -16.57,-16.52 -4.47,-12.38 -8.93,-24.44 -13.39,-36.82 -3.2,-8.56 -6.7,-13.92 -15.31,-18.7 18.17,-3.82 31.88,-17.54 31.88,-42.08 0,-8.6 0,-17.85 0,-26.14 0,-35.38 -25.82,-46.86 -56.74,-46.86l-58.33 0 0 8.61 10.19 7.97c0,55.14 0,111.52 0,166.72l-12.11 8.92 0 8.61c16.58,0 37.93,0 54.83,0l0 -8.61 -12.11 -8.92c0,-18.07 0,-46.97 0,-64.4 16.57,0 20.4,4.09 26.14,19.02l14.02 36.82zm179.79 26.41l0 -44.95 -13.39 0 -10.2 26.78 -47.5 0 0 -1.6c5.11,-1.59 6.38,-4.14 6.38,-8.92l0 -62.16 26.14 0 7.97 14.66 8.92 0 0 -48.45 -8.92 0 -7.97 15.62 -26.14 0 0 -74.27 37.61 0 8.29 27.09 14.98 0 0 -44.95 -102.65 0 0 7.65 10.52 7.97 0 167.99 -12.43 8.92 0 8.61 108.38 0zm242.26 -150.77c0,-32.2 -22.95,-53.24 -58.34,-53.24 -35.37,0 -58.01,21.36 -58.01,53.24 0,33.78 0,66.94 0,100.73 0,26.46 15.62,45.27 41.12,51.32l0 -22.63c-4.78,-4.14 -8.29,-9.57 -9.57,-17.85 -2.23,-13.71 15.63,-15.94 15.63,0.64 0,16.89 0,33.47 0,50.36 0,28.37 25.18,40.16 45.26,21.04l-4.46 -8.29c-9.88,2.87 -14.02,-3.19 -14.02,-12.75l0 -10.2c26.14,-5.41 42.39,-24.54 42.39,-51.64l0 -100.73zm-85.11 90.53l0 -90.53c0,-22 8.29,-33.15 26.77,-33.15 18.49,0 26.78,14.66 26.78,33.15 0,33.78 0,66.94 0,100.73 0,11.79 -3.51,22.32 -10.84,28.69l0 -18.8c0.32,-29.97 -32.2,-38.57 -42.72,-20.09zm217.08 9.57c0,20.09 -7.33,32.2 -28.05,32.2 -16.89,0 -27.41,-8.61 -27.41,-32.2 0,-44.31 0,-88.61 0,-132.61l12.11 -9.25 0 -8.61c-16.58,0 -39.21,0 -55.79,0l0 8.61 12.11 9.25c0,43.99 0,88.3 0,132.61 0,37.3 24.86,53.55 54.51,53.55 29.64,0 53.87,-16.25 53.87,-53.55 0,-44.63 0,-88.61 0,-133.25l10.52 -7.97 0 -9.25c-14.34,0 -28.37,0 -42.39,0l0 9.25 10.51 7.97 0 133.25zm134.85 -3.19l9.24 39.52 -9.87 6.7 0 7.64 51.96 0 0 -9.25 -10.2 -6.69 -45.9 -186.17 -30.91 0c-14.67,58.65 -30.61,128.15 -44.63,187.12l-10.2 5.73 0 9.25 40.16 0 0 -9.25 -10.51 -5.41 9.24 -39.21 51.65 0zm-25.82 -111.58l21.67 94.36 -43.67 0c7.33,-33.15 15.62,-69.49 21.67,-94.36l0.33 0zm154.28 -17.21c19.45,0 25.5,10.52 25.5,28.37 0,8.29 0,17.54 0,26.14 0,17.86 -7.01,28.38 -25.82,28.38l-17.53 0c0,-30.92 0,-51.97 0,-82.88l17.85 0zm22.63 156.25c5.74,15.25 7.65,28.32 26.14,28 6.38,0 15.31,-0.96 21.36,-3.82l0 -11.79c-8.93,1.59 -13.71,-8.87 -16.57,-16.52 -4.47,-12.38 -8.93,-24.44 -13.39,-36.82 -3.2,-8.56 -6.7,-13.92 -15.31,-18.7 18.17,-3.82 31.88,-17.54 31.88,-42.08 0,-8.6 0,-17.85 0,-26.14 0,-35.38 -25.82,-46.86 -56.74,-46.86l-58.33 0 0 8.61 10.19 7.97c0,55.14 0,111.52 0,166.72l-12.11 8.92 0 8.61c16.58,0 37.94,0 54.83,0l0 -8.61 -12.11 -8.92c0,-18.07 0,-46.97 0,-64.4 16.57,0 20.4,4.09 26.14,19.02l14.02 36.82zm158.75 -155.93l10.2 32.2 14.34 0 -1.27 -51.01c-39.21,0 -78.41,0 -117.94,0l-0.96 51.01 14.34 0 9.56 -32.2 20.4 0c0,54.5 0,108.7 0,162.9l-12.11 9.24 0 10.2c16.58,0 38.89,0 55.47,0l0 -10.2 -11.79 -9.24c0,-54.2 0,-108.39 0,-162.9l19.76 0zm91.81 -2.23l10.2 -7.97 0 -8.61 -51 0 0 8.61 10.2 7.97c0,55.78 0,111.25 0,167.04l-12.12 8.92 0 8.61c16.58,0 38.26,0 54.51,0l0 -8.61 -11.79 -8.92 0 -167.04zm-838.37 -40.49l0 0 -49.73 230.48 23.91 0 49.73 -230.48 -23.91 0z"/>
  <path class="fil0" d="M549.96 85.86c-3.89,-4 -3.8,-10.41 0.2,-14.3 4,-3.9 10.41,-3.81 14.3,0.2 61.25,62.74 91.28,144.38 90.32,225.67 -0.98,81.29 -32.96,162.21 -95.71,223.48 -62.74,61.25 -144.38,91.28 -225.67,90.32 -81.24,-0.98 -162.12,-32.93 -223.38,-95.61l-0.02 0.02 -0.08 -0.12c-61.25,-62.74 -91.28,-144.38 -90.32,-225.67 0.96,-80.08 32.02,-159.82 92.95,-220.75 0.88,-0.88 1.76,-1.76 2.66,-2.63l-0.02 -0.02c3.96,-3.96 10.38,-3.96 14.34,0 3.96,3.96 3.96,10.38 0,14.34l-0.12 0.08c-0.8,0.78 -1.59,1.56 -2.38,2.35l-0.06 0.07c-49.57,49.67 -74.84,114.6 -75.62,179.83 -0.79,66.28 23.72,132.89 73.7,184.09 49.98,51.18 115.97,77.26 182.25,78.05 66.29,0.79 132.89,-23.72 184.09,-73.71 37.07,-36.19 61.56,-81.72 72.12,-130.29 10.57,-48.59 7.19,-100.2 -11.52,-148.52 -2.01,-5.21 0.58,-11.07 5.79,-13.08 5.21,-2.01 11.06,0.58 13.07,5.78 20.19,52.15 23.85,107.77 12.47,160.1 -11.39,52.34 -37.82,101.44 -77.83,140.51 -55.16,53.87 -126.95,80.26 -198.43,79.42 -71.47,-0.86 -142.62,-28.97 -196.51,-84.16 -29.16,-29.88 -50.27,-64.63 -63.37,-101.56 11.73,51.67 37.41,100.86 77.13,141.58l0.02 -0.02 0.08 0.12c57.37,58.75 133.13,88.69 209.22,89.6 76.09,0.92 152.55,-27.22 211.33,-84.6 58.75,-57.37 88.69,-133.13 89.61,-209.22 0.91,-76.09 -27.22,-152.55 -84.61,-211.33z"/>
  <path class="fil0" d="M583.92 213.89c4.66,38.31 0.25,76.65 -12.25,112.17 -12.49,35.53 -33.06,68.23 -60.73,95.23 -48.99,47.84 -112.75,71.29 -176.22,70.52 -63.48,-0.76 -126.68,-25.73 -174.52,-74.74 -47.84,-48.99 -71.29,-112.75 -70.53,-176.22 0.76,-63.48 25.73,-126.68 74.74,-174.52 9.91,-9.67 20.62,-18.5 32,-26.4 11.34,-7.85 22.6,-15.06 35.96,-20.68 6.18,-2.6 70.52,-24.37 71.7,9.34 0.34,9.9 -18.11,14.36 -27.24,12.13 -77.29,-18.79 -165.76,95.3 -167.02,200.37 -0.7,58.31 20.85,116.89 64.84,161.93 43.95,45.02 102,67.96 160.3,68.66 58.31,0.7 116.9,-20.86 161.93,-64.84 25.4,-24.8 44.29,-54.8 55.76,-87.41 11.47,-32.62 15.52,-67.87 11.22,-103.18l20.07 -2.37z"/>
  <path class="fil0" d="M538.23 169.91c-3.52,-9.23 -7.59,-18.23 -12.18,-26.98 -6.41,-12.2 -13.06,-23.82 -22.31,-34.98 -4.27,-5.17 -51.23,-54.24 -67.88,-24.9 -4.89,8.61 9.41,21.1 18.53,23.36 2.85,0.71 5.61,1.59 8.32,2.63 31.63,9.71 59.07,31.03 75.52,60.87z"/>
  <path class="fil0" d="M239.37 254.26l1.11 4.74c3.34,0 6.41,0 9.75,0 15.88,0.28 21.73,13.65 21.73,27.86l0 32.87c0,14.49 -5.57,28.42 -21.17,28.42 -18.12,0 -20.34,-13.65 -20.34,-28.42l0 -12.53 -28.13 0 0 12.53c0,32.04 16.71,46.81 48.47,46.81 31.47,0 49.87,-14.77 49.87,-46.81l0 -32.87c0,-18.12 -10.31,-35.38 -28.97,-38.17l28.14 -70.76 0 -9.74c-31.2,0 -62.13,0 -93.33,0l0 45.13 12.54 0 9.2 -26.19 39.28 0 -28.14 67.14zm126.48 -87.75l0 0 -43.46 201.41 20.89 0 43.46 -201.41 -20.89 0zm28.97 129.53l0 20.07 66.3 0 0 47.08 27.58 0 0 -47.08 14.48 0 0 -21.17 -14.48 0c0,-42.35 0,-84.41 0,-126.76l-24.79 0 -69.09 127.86zm66.3 -84.13l0 83.02 -43.73 0 43.73 -83.02z"/>
  <path class="fil0" d="M812.65 443.65l-4.27 20.38c-1.1,5.45 -2.04,10.57 -2.64,15.61l-0.26 0c-0.86,-5.12 -1.96,-10.15 -3.32,-15.61l-5.04 -20.38 -9.97 0 -5.29 20.98c-1.11,4.69 -2.48,9.97 -3.32,15.01l-0.26 0c-0.69,-5.04 -1.62,-10.15 -2.56,-15.18l-4.01 -20.81 -13.04 0 13.21 47.5 11.44 0 5.2 -18.16c1.28,-4.52 2.3,-9.21 3.16,-14.92l0.17 0c0.94,5.71 1.88,10.23 3.08,14.92l4.77 18.16 11.43 0 13.9 -47.5 -12.36 0zm62.35 -12.96c0,-3.92 -2.73,-6.74 -6.83,-6.74 -3.92,0 -6.74,2.82 -6.74,6.74 0,3.83 2.74,6.74 6.74,6.74 3.92,0 6.83,-2.65 6.83,-6.74zm-0.43 12.96l-12.62 0 0 47.5 12.62 0 0 -47.5zm82.05 18.36c0,-13.25 -6.74,-19.3 -15.44,-19.3 -6.91,0 -11.6,3.92 -13.73,7.42l-0.26 0 -0.6 -6.48 -10.91 0c0.17,4.19 0.34,8.71 0.34,14.27l0 33.22 12.62 0 0 -28.27c0,-7.21 4.69,-9.84 8.1,-9.84 5.36,0 7.25,4.6 7.25,10.4l0 27.71 12.62 0 0 -29.13zm75.4 18.56c-3.24,1.1 -6.91,1.96 -11.61,1.96 -6.82,0 -12.61,-3.24 -12.96,-11.34l28.4 0c0.26,-1.37 0.34,-3.17 0.34,-5.04 0,-15.35 -7.49,-23.54 -19.01,-23.54 -13.9,0 -21.75,11.77 -21.75,25.41 0,14.76 8.36,23.97 23.02,23.97 5.89,0 11.43,-1.03 15.36,-2.73l-1.79 -8.7zm-24.56 -18.16c0.35,-4.69 2.91,-11 8.96,-11 6.22,0 8.18,6.05 8.1,11l-17.06 0zm117.1 -13.05l0 -26.77 -12.63 0 0 54.91c0,4.87 -0.17,10.24 -0.34,13.65l10.75 0 0.6 -6.56 0.25 0c2.99,5.36 7.5,7.49 12.8,7.49 9.8,0 19.44,-8.35 19.44,-25.58 0,-14.15 -7,-23.88 -17.48,-23.88 -6.06,0 -10.49,2.56 -13.22,6.74l-0.17 0zm0 13.56c0,-6.13 4.17,-10.23 8.52,-10.23 6.48,0 9.63,6.31 9.63,14.41 0,9.22 -3.49,14.93 -9.63,14.93 -5.03,0 -8.52,-4.44 -8.52,-9.81l0 -9.3zm105.41 -0.42c0,-10.41 -4.01,-19.79 -18.76,-19.79 -7.42,0 -13.3,2.13 -16.45,4.01l2.38 8.18c3.08,-1.87 7.34,-3.23 11.69,-3.23 6.91,0 8.53,3.57 8.53,8.27 -15.09,0 -25.93,5.71 -25.93,17.91 0,7.67 5.46,14.23 14.24,14.23 5.29,0 9.89,-2.13 12.62,-5.88l0.26 0 0.77 4.95 11.35 0c-0.52,-2.9 -0.69,-7.08 -0.69,-11.26l0 -17.39zm-12.28 12.36c0,6.05 -4.95,8.18 -7.93,8.18 -3.15,0 -5.96,-1.96 -5.96,-6.48 0,-6.91 7.08,-8.53 13.89,-8.53l0 6.83zm79.58 -31.98c-0.86,-0.17 -1.62,-0.26 -2.82,-0.26 -4.43,0 -9.55,3.16 -11.76,9.3l-0.34 0 -0.52 -8.27 -10.83 0c0.17,4.26 0.34,8.96 0.34,14.84l0 32.66 12.62 0 0 -24.55c0,-8.1 4.35,-11.94 10.06,-11.94 1.28,0 2.31,0.09 3.24,0.26l0 -12.02zm261.98 20.29l15.53 -19.53 -14.67 0 -9.47 14.84c-1.1,1.79 -2.13,3.75 -3.16,5.88l-0.26 0 0 -41.78 -12.62 0 0 68.56 12.62 0 0 -15.78 3.32 -4.52 11.09 20.29 15.01 0 -17.4 -27.97zm65.42 -32.49c0,-3.92 -2.73,-6.74 -6.83,-6.74 -3.92,0 -6.74,2.82 -6.74,6.74 0,3.83 2.74,6.74 6.74,6.74 3.92,0 6.83,-2.65 6.83,-6.74zm-0.43 12.96l-12.62 0 0 47.5 12.62 0 0 -47.5zm43.5 0l-6.22 0 0 9.3 6.22 0 0 21.92c0,5.29 0.26,17.14 13.9,17.14 3.66,0 6.74,-0.43 8.44,-1.1l-0.17 -9.64c-1.28,0.26 -2.3,0.43 -4.09,0.43 -3.84,0 -5.63,-2.39 -5.63,-8.1l0 -20.63 10.49 0 0 -9.3 -10.49 0 0 -12.36 -12.45 3.66 0 8.7zm91.43 36.84c-2.05,0.95 -4.52,1.54 -7.67,1.54 -7.25,0 -12.62,-5.37 -12.62,-14.67 0,-8.36 4.61,-14.75 12.53,-14.75 3.5,0 5.8,0.77 7.43,1.53l2.04 -9.63c-2.04,-0.86 -5.79,-1.79 -9.89,-1.79 -15.69,0 -24.89,10.92 -24.89,25.15 0,15.1 9.04,24.14 22.93,24.14 5.04,0 9.39,-1.03 11.52,-2.05l-1.36 -9.47zm80.16 -17.74c0,-13.98 -6.65,-20.13 -15.09,-20.13 -4.09,0 -9.3,1.79 -12.71,6.74l-0.17 0 0 -26.77 -12.62 0 0 68.56 12.62 0 0 -28.82c0,-7.08 4.87,-9.29 8.02,-9.29 5.45,0 7.33,4.69 7.33,10.74l0 27.37 12.62 0 0 -28.4zm75.4 17.83c-3.23,1.1 -6.91,1.96 -11.6,1.96 -6.82,0 -12.62,-3.24 -12.96,-11.34l28.4 0c0.25,-1.37 0.34,-3.17 0.34,-5.04 0,-15.35 -7.5,-23.54 -19.02,-23.54 -13.89,0 -21.74,11.77 -21.74,25.41 0,14.76 8.35,23.97 23.02,23.97 5.88,0 11.43,-1.03 15.35,-2.73l-1.79 -8.7zm-24.55 -18.16c0.34,-4.69 2.9,-11 8.95,-11 6.23,0 8.19,6.05 8.1,11l-17.05 0zm108.22 -0.4c0,-13.25 -6.74,-19.3 -15.44,-19.3 -6.91,0 -11.6,3.92 -13.73,7.42l-0.26 0 -0.6 -6.48 -10.91 0c0.17,4.19 0.34,8.71 0.34,14.27l0 33.22 12.62 0 0 -28.27c0,-7.21 4.69,-9.84 8.1,-9.84 5.36,0 7.25,4.6 7.25,10.4l0 27.71 12.62 0 0 -29.13zm-567.5 -7.37c-0.68,5.89 -2.22,12.19 -4.86,16.63 -3.41,-3.84 -7.93,-9.63 -11.69,-14.24l0 -0.43c9.39,-5.2 12.71,-10.74 12.71,-17.31 0,-9.04 -6.83,-14.75 -15.87,-14.75 -11.69,0 -17.74,8.36 -17.74,16.71 0,4.69 1.87,9.63 4.95,13.39l0 0.35c-7.17,4.17 -11.76,10.23 -11.76,18.67 0,9.55 6.82,18.41 20.63,18.41 6.91,0 12.62,-2.21 16.88,-5.96 1.71,2.13 2.99,3.49 4.35,5.03l14.41 0c-4.01,-4.6 -7.5,-8.7 -10.57,-12.27 5.2,-6.06 8.27,-14.67 9.71,-24.23l-11.17 0zm-21.66 28.15c-6.57,0 -10.75,-5.04 -10.75,-11.09 0,-4.78 2.82,-8.01 5.46,-10.15 5.12,6.31 10.57,12.88 14.49,17.32 -2.3,2.64 -5.71,3.92 -9.21,3.92zm1.45 -50.06c4,0 5.62,3.74 5.62,7.08 0,4.17 -2.47,7.25 -7.42,10.57 -2.73,-3.32 -4.27,-6.4 -4.27,-10.15 0,-3.66 1.88,-7.49 6.06,-7.49z"/>
 </g>
</svg>
