<svg id="Слой_1" data-name="Слой 1" xmlns="http://www.w3.org/2000/svg" viewBox="0 0 317.01 499.67"><defs><style>.cls-1,.cls-4{font-size:72px;font-family:BebasNeueRegular, Bebas Neue;}.cls-2{letter-spacing:-0.04em;}.cls-3,.cls-5{fill:none;stroke-miterlimit:10;stroke-width:4px;}.cls-3{stroke:#000;}.cls-4,.cls-6{fill:#fff;}.cls-5{stroke:#fff;}</style></defs><title>logotip new</title><text class="cls-1" transform="translate(103.83 155.95)">internet<tspan class="cls-2" x="0" y="58">a</tspan><tspan x="27.63" y="58">telier</tspan></text><path class="cls-3" d="M813.72,402.92a99.48,99.48,0,0,0,100,99.12" transform="translate(-811.72 -300.96)"/><path class="cls-3" d="M912.85,303a99.48,99.48,0,0,0-99.13,99.95" transform="translate(-811.72 -300.96)"/><path class="cls-3" d="M1012.8,402.09A99.47,99.47,0,0,0,912.85,303" transform="translate(-811.72 -300.96)"/><circle cx="35.7" cy="167.38" r="33.7"/><text class="cls-4" transform="translate(114.82 430.95)">internet<tspan class="cls-2" x="0" y="58">a</tspan><tspan x="27.63" y="58">telier</tspan></text><path class="cls-5" d="M824.72,677.91A99.47,99.47,0,0,0,924.67,777" transform="translate(-811.72 -300.96)"/><path class="cls-5" d="M923.84,578a99.47,99.47,0,0,0-99.12,99.95" transform="translate(-811.72 -300.96)"/><path class="cls-5" d="M1023.79,677.08A99.47,99.47,0,0,0,923.84,578" transform="translate(-811.72 -300.96)"/><circle class="cls-6" cx="46.69" cy="442.37" r="33.7"/></svg>