<svg width="45" height="45" viewBox="0 0 45 45" fill="none" xmlns="http://www.w3.org/2000/svg">
<g clip-path="url(#clip0)">
<rect width="45" height="45" fill="white"/>
<rect width="68" height="68" fill="#BBBBBB"/>
<path fill-rule="evenodd" clip-rule="evenodd" d="M30.8672 24.0655H36.1271H30.8672ZM36.1271 21.5505H30.8672H36.1271ZM25.5634 9.84375C31.653 11.0183 36.2528 16.3755 36.2528 22.808C36.2528 30.1007 30.341 36.0126 23.0483 36.0126C15.7556 36.0126 9.84375 30.1007 9.84375 22.808C9.84375 16.3755 14.4435 11.0183 20.5331 9.84375V15.2932C17.3905 16.3445 15.1256 19.3117 15.1256 22.808C15.1256 27.1836 18.6727 30.7307 23.0483 30.7307C27.4238 30.7307 30.971 27.1836 30.971 22.808C30.971 19.3117 28.706 16.3445 25.5634 15.2932V9.84375Z" fill="white"/>
</g>
<defs>
<clipPath id="clip0">
<rect width="45" height="45" fill="white"/>
</clipPath>
</defs>
</svg>
