<svg width="150" height="37" viewBox="0 0 150 37" fill="none" xmlns="http://www.w3.org/2000/svg">
<path fill-rule="evenodd" clip-rule="evenodd" d="M56.3579 29.1328C62.3915 29.1328 67.2827 24.2416 67.2827 18.208C67.2827 12.1745 62.3915 7.28321 56.3579 7.28321C50.3244 7.28321 45.4331 12.1745 45.4331 18.208C45.4331 24.2416 50.3244 29.1328 56.3579 29.1328ZM56.3578 0C66.4139 0 74.5658 8.15196 74.5658 18.208C74.5658 28.2641 66.4139 36.416 56.3578 36.416C46.3017 36.416 38.1497 28.2641 38.1497 18.208C38.1497 8.15196 46.3017 0 56.3578 0Z" fill="black"/>
<path fill-rule="evenodd" clip-rule="evenodd" d="M77.1674 18.2076C77.1674 8.63039 84.9311 0.866577 94.5084 0.866577H111.849V7.80298H94.5084C88.762 7.80298 84.1038 12.4612 84.1038 18.2076V35.5486H77.1674V18.2076Z" fill="black"/>
<path fill-rule="evenodd" clip-rule="evenodd" d="M122.254 18.1827V35.5486H115.318V18.1827C115.318 8.63039 123.082 0.866577 132.659 0.866577C142.236 0.866577 150 8.63039 150 18.2076L150 35.5486H143.064V18.2076C143.064 12.4612 138.405 7.80287 132.659 7.80287C126.913 7.80287 122.254 12.4612 122.254 18.1827Z" fill="black"/>
<path fill-rule="evenodd" clip-rule="evenodd" d="M28.9897 19.9425H36.2426H28.9897ZM36.2426 16.4744H28.9897H36.2426ZM21.6762 0.331787C30.0733 1.95142 36.416 9.33854 36.416 18.2085C36.416 28.2645 28.2641 36.4165 18.208 36.4165C8.15196 36.4165 0 28.2645 0 18.2085C0 9.33854 6.34269 1.95142 14.7398 0.331787V7.84609C10.4064 9.29578 7.28321 13.3874 7.28321 18.2085C7.28321 24.242 12.1745 29.1333 18.208 29.1333C24.2415 29.1333 29.1328 24.242 29.1328 18.2085C29.1328 13.3874 26.0096 9.29578 21.6762 7.84609V0.331787Z" fill="black"/>
</svg>
