<svg width="57" height="41" viewBox="0 0 57 41" fill="none" xmlns="http://www.w3.org/2000/svg">
<path d="M0.539001 0.624992C0.872001 0.452992 1.269 0.479992 1.575 0.693992L28 19.277V1.49999C28 1.12699 28.208 0.783993 28.539 0.611993C28.872 0.439993 29.27 0.465992 29.575 0.681992L56.575 19.682C56.842 19.869 57 20.175 57 20.5C57 20.825 56.842 21.131 56.575 21.317L29.575 40.317C29.403 40.439 29.202 40.5 29 40.5C28.843 40.5 28.685 40.463 28.539 40.388C28.208 40.216 28 39.873 28 39.5V21.723L1.575 40.306C1.403 40.426 1.202 40.488 1 40.488C0.843 40.488 0.685001 40.451 0.539001 40.376C0.208001 40.203 0 39.86 0 39.487V1.51299C0 1.13999 0.208001 0.796992 0.539001 0.624992ZM30 37.573L54.263 20.5L30 3.42699V37.573ZM2 37.562L26.262 20.5L2 3.43899V37.562Z" fill="black"/>
</svg>
