<svg width="16" height="23" viewBox="0 0 16 23" fill="none" xmlns="http://www.w3.org/2000/svg">
<g clip-path="url(#clip0)">
<path d="M15.4166 22.5607C15.2827 22.5702 15.1584 22.5224 15.0628 22.4363L5.9008 14.9576C5.67127 14.7758 5.64258 14.4411 5.82429 14.2116C5.84342 14.1829 5.87211 14.1638 5.9008 14.1351L15.0628 6.6563C15.2445 6.5224 15.474 6.50328 15.6749 6.58935C15.8757 6.66586 16.0096 6.87626 16 7.09622V21.9964C16 22.2164 15.8757 22.4076 15.6749 22.5033C15.5888 22.532 15.5027 22.5511 15.4166 22.5607ZM7.15364 14.5176L14.8619 20.8392V8.22474L7.15364 14.5176Z" fill="black"/>
<path d="M15.4166 22.5607C15.2827 22.5702 15.1584 22.5224 15.0627 22.4363L9.49669 17.884C9.26716 17.7023 9.23847 17.3676 9.42018 17.1476C9.4393 17.1189 9.468 17.0903 9.49669 17.0711L15.034 12.5379C15.2158 12.4041 15.4453 12.3849 15.6461 12.471C15.847 12.5475 15.9808 12.7579 15.9713 12.9779V21.9964C15.9713 22.2164 15.847 22.4076 15.6461 22.5033C15.5696 22.5415 15.4931 22.5607 15.4166 22.5607ZM10.7495 17.4632L14.8619 20.8296V14.1064L10.7495 17.4632Z" fill="black"/>
<path d="M0.554692 16.0574C0.478183 16.0574 0.401673 16.0383 0.325164 15.9904C0.124327 15.9044 0 15.7035 0 15.4836V0.55469C0 0.334726 0.124327 0.143453 0.325164 0.0478163C0.526001 -0.0382566 0.765092 -0.0191293 0.937238 0.114762L10.0992 7.59354C10.3287 7.77525 10.3574 8.10998 10.1757 8.33951C10.1566 8.3682 10.1279 8.39689 10.0992 8.41602L0.937238 15.9235C0.832038 16.0191 0.688583 16.0669 0.554692 16.0574ZM1.13807 1.72146V14.3264L8.84638 8.00478L1.13807 1.72146Z" fill="black"/>
<path d="M0.554692 10.1757C0.478183 10.1757 0.401674 10.1566 0.325164 10.1088C0.124328 10.0227 0 9.82188 0 9.60191V0.55469C0 0.334726 0.124328 0.143453 0.325164 0.0478163C0.526001 -0.0382566 0.765093 -0.0191293 0.937238 0.114762L6.4746 4.67663C6.70412 4.85834 6.73281 5.19306 6.55111 5.42259C6.53198 5.45128 6.50329 5.47041 6.4746 5.4991L0.937238 10.0514C0.832038 10.1375 0.688583 10.1853 0.554692 10.1757ZM1.13808 1.72146V8.44471L5.25045 5.0783L1.13808 1.72146Z" fill="black"/>
</g>
<defs>
<clipPath id="clip0">
<rect width="16" height="22.5607" fill="white"/>
</clipPath>
</defs>
</svg>
