<svg xmlns="http://www.w3.org/2000/svg" viewBox="0 0 167.26 235.88"><defs><style>.cls-1{fill:#fff;}</style></defs><title>Ресурс 3</title><g id="Слой_2" data-name="Слой 2"><g id="Слой_1-2" data-name="Слой 1"><path class="cls-1" d="M161.17,235.88a5.18,5.18,0,0,1-3.73-1.32L61.62,156.35a5.52,5.52,0,0,1,0-8.55l95.82-78.21a6.33,6.33,0,0,1,6.44-.66,5.33,5.33,0,0,1,3.38,5.26V230a5.85,5.85,0,0,1-3.38,5.26A8.2,8.2,0,0,1,161.17,235.88ZM74.83,151.75l80.58,66.05V86Z"/><path class="cls-1" d="M161.17,235.88a5.18,5.18,0,0,1-3.73-1.32L99.21,186.91a5.49,5.49,0,0,1,0-8.54L157.1,131a6.38,6.38,0,0,1,6.44-.66,5.33,5.33,0,0,1,3.38,5.26V230a5.85,5.85,0,0,1-3.38,5.26A5,5,0,0,1,161.17,235.88Zm-48.76-53.24,43,35.16V147.47Z"/><path class="cls-1" d="M5.76,167.85a5,5,0,0,1-2.37-.66A5.83,5.83,0,0,1,0,161.93V5.83A5.84,5.84,0,0,1,3.39.57a6.45,6.45,0,0,1,6.43.66l95.82,78.22a5.51,5.51,0,0,1,0,8.54L9.82,166.54A5.53,5.53,0,0,1,5.76,167.85ZM11.85,18V149.77L92.43,83.72Z"/><path class="cls-1" d="M5.76,106.39a5,5,0,0,1-2.37-.65A5.84,5.84,0,0,1,0,100.48V5.83A5.84,5.84,0,0,1,3.39.57a6.45,6.45,0,0,1,6.43.66l57.9,47.65a5.52,5.52,0,0,1,0,8.55L9.82,105.08A5.48,5.48,0,0,1,5.76,106.39ZM11.85,18V88.32l43-35.16Z"/></g></g></svg>