<?xml version="1.0" encoding="utf-8"?>
<!-- Generator: Adobe Illustrator 23.0.1, SVG Export Plug-In . SVG Version: 6.00 Build 0)  -->
<svg version="1.1" id="Слой_1" xmlns="http://www.w3.org/2000/svg" xmlns:xlink="http://www.w3.org/1999/xlink" x="0px" y="0px"
	 viewBox="0 0 974.7 227.4" style="enable-background:new 0 0 974.7 227.4;" xml:space="preserve">
<style type="text/css">
	.st0{fill:#FFFFFF;}
</style>
<title>Ресурс 4</title>
<g>
	<g id="Слой_1-2">
		<path class="st0" d="M821.1,170.2c-36.6,2.6-66.7-27.9-62-63.8c3-24.7,23.4-45,48.8-49c20.6-3.3,41.4,4.4,54.8,20.4l1,1
			c1.3,1.7,1.3,4.6-0.7,5.9l-2.4,2c-1.7,1.3-4.7,1.3-6.1-0.7l-0.3-0.3c-8.4-10.3-20.6-16.7-33.8-17.8c-29.1-2-53.2,22.3-49.8,50.9
			c2.4,19.1,17.6,35.2,36.9,38.8c17.6,3.3,34.9-3,45.7-16.1l1-1c1.6-1.7,4.2-2,6.1-0.7l2.4,2c1.7,1.5,2,4.1,0.7,5.9
			C852.9,160.7,838,169.2,821.1,170.2z"/>
		<path class="st0" d="M62,57.2c-32.8-2-60.3,22.3-62,53.6v112.4c0.1,2.4,2,4.3,4.4,4.3h3.4c2.4,0,4.3-1.9,4.4-4.3v-74.9
			c11.3,14.1,28.3,22.3,46.4,22.3c33.2,0,60.3-26.9,58.2-59.8C114.8,82.2,91.1,58.8,62,57.2z M57.9,159.1
			c-25.7,0-46.7-20.4-46.7-45.3s21-45.3,46.7-45.3s46.7,20.4,46.7,45.3S84,159.1,57.9,159.1z"/>
		<path class="st0" d="M157.8,4.2c0-2.2-1.8-3.9-3.9-3.9c0,0,0,0,0,0H150c-2.4,0-4.3,1.9-4.4,4.3v162c0.1,2.4,2,4.3,4.4,4.3h3.4
			c2.4,0,4.3-1.9,4.4-4.3L157.8,4.2z"/>
		<path class="st0" d="M970.4,56.8H966c-1,0-2,0.3-2.7,1l-55.9,47.7V4.3c-0.1-2.4-2-4.3-4.4-4.3h-3.4c-2.4,0-4.3,1.9-4.4,4.3V166
			c0.1,2.4,2,4.3,4.4,4.3h3.4c2.4,0,4.3-1.9,4.4-4.3v-44.4l55.9,47.7c0.7,0.7,1.7,1,2.7,1h4.4c2.2,0.1,4.1-1.6,4.2-3.9
			c0.1-1.3-0.5-2.5-1.5-3.4l-57.9-49.3l57.9-49.3c1.8-1.5,2.1-4.2,0.6-6C972.9,57.4,971.7,56.8,970.4,56.8z"/>
		<path class="st0" d="M303.7,113.7c0-33.5-29.8-60.1-65-56.2c-26.7,3-48.4,24-51.5,50c-4.1,34.2,23.7,63.1,57.9,63.1
			c18.1,0,35.1-8.2,46.4-22.3v18.1c0.1,2.4,2,4.3,4.4,4.3h3.4c2.4,0,4.3-1.9,4.4-4.3L303.7,113.7L303.7,113.7z M245.5,159.1
			c-25.7,0-46.7-20.4-46.7-45.3s21-45.3,46.7-45.3s46.7,20.4,46.7,45.3S271.2,159.1,245.5,159.1z"/>
		<path class="st0" d="M729.3,110.4c-1.7-30.9-29.1-55.5-62-53.6c-29.1,1.7-53.2,25-54.5,53.6c-1.7,32.9,25,59.8,58.2,59.8
			c18.1,0,35.1-8.2,46.4-22.3V166c0.1,2.4,2,4.3,4.4,4.3h3.4c2.4,0,4.3-1.9,4.4-4.3v-54.3C729.3,111.4,729.3,111.1,729.3,110.4z
			 M671.1,159.1c-25.7,0-46.7-20.4-46.7-45.3s21-45.3,46.7-45.3s46.7,20.4,46.7,45.3S696.8,159.1,671.1,159.1z"/>
		<path class="st0" d="M381.2,157.4l-43.7-97.9c-0.7-1.6-2.3-2.6-4.1-2.6h-3.4c-2.4,0-4.4,2-4.3,4.4c0,0.5,0.1,1,0.3,1.5l48.4,108.8
			l-21,47.3c-1.3,2.8,0,6.2,2.9,7.4c0.8,0.3,1.7,0.5,2.5,0.5c2.3,0,4.4-1.3,5.4-3.3l71.8-160.7c1.4-2.6-1-5.9-4.1-5.9h-3.4
			c-1.8,0-3.4,1-4.1,2.6L381.2,157.4z"/>
		<path class="st0" d="M531.2,57.2c-21.3-2-40.6,6.9-52.5,22V4.6c-0.1-2.4-2-4.3-4.4-4.3H471c-2.4,0-4.3,1.9-4.4,4.3v109.1
			c0,31.2,26.1,56.8,58.6,56.8c33.2,0,60.3-26.9,58.2-59.8C582,83.2,559.3,60.1,531.2,57.2z M525.2,159.1
			c-25.7,0-46.7-20.4-46.7-45.3s21-45.3,46.7-45.3c25.7,0,46.7,20.4,46.7,45.3S550.9,159.1,525.2,159.1z"/>
	</g>
</g>
</svg>
