<?xml version="1.0" encoding="utf-8"?>
<!-- Generator: Adobe Illustrator 23.0.1, SVG Export Plug-In . SVG Version: 6.00 Build 0)  -->
<svg version="1.1" id="Слой_1" xmlns="http://www.w3.org/2000/svg" xmlns:xlink="http://www.w3.org/1999/xlink" x="0px" y="0px"
	 viewBox="0 0 167.3 235.9" style="enable-background:new 0 0 167.3 235.9;" xml:space="preserve">
<style type="text/css">
	.st0{fill:#FFFFFF;}
</style>
<title>Ресурс 1</title>
<g>
	<g id="Слой_1-2">
		<path class="st0" d="M161.2,235.9c-1.4,0.1-2.7-0.4-3.7-1.3l-95.8-78.2c-2.4-1.9-2.7-5.4-0.8-7.8c0.2-0.3,0.5-0.5,0.8-0.8
			l95.8-78.2c1.9-1.4,4.3-1.6,6.4-0.7c2.1,0.8,3.5,3,3.4,5.3V230c0,2.3-1.3,4.3-3.4,5.3C163,235.6,162.1,235.8,161.2,235.9z
			 M74.8,151.8l80.6,66.1V86L74.8,151.8z"/>
		<path class="st0" d="M161.2,235.9c-1.4,0.1-2.7-0.4-3.7-1.3l-58.2-47.6c-2.4-1.9-2.7-5.4-0.8-7.7c0.2-0.3,0.5-0.6,0.8-0.8
			l57.9-47.4c1.9-1.4,4.3-1.6,6.4-0.7c2.1,0.8,3.5,3,3.4,5.3V230c0,2.3-1.3,4.3-3.4,5.3C162.8,235.7,162,235.9,161.2,235.9z
			 M112.4,182.6l43,35.2v-70.3L112.4,182.6z"/>
		<path class="st0" d="M5.8,167.9c-0.8,0-1.6-0.2-2.4-0.7c-2.1-0.9-3.4-3-3.4-5.3V5.8c0-2.3,1.3-4.3,3.4-5.3
			c2.1-0.9,4.6-0.7,6.4,0.7l95.8,78.2c2.4,1.9,2.7,5.4,0.8,7.8c-0.2,0.3-0.5,0.6-0.8,0.8L9.8,166.5C8.7,167.5,7.2,168,5.8,167.9z
			 M11.9,18v131.8l80.6-66.1L11.9,18z"/>
		<path class="st0" d="M5.8,106.4c-0.8,0-1.6-0.2-2.4-0.7c-2.1-0.9-3.4-3-3.4-5.3V5.8c0-2.3,1.3-4.3,3.4-5.3
			c2.1-0.9,4.6-0.7,6.4,0.7l57.9,47.7c2.4,1.9,2.7,5.4,0.8,7.8c-0.2,0.3-0.5,0.5-0.8,0.8L9.8,105.1C8.7,106,7.2,106.5,5.8,106.4z
			 M11.9,18v70.3l43-35.2L11.9,18z"/>
	</g>
</g>
</svg>
