<svg width="164" height="117" fill="none" xmlns="http://www.w3.org/2000/svg"><path d="M16 94.5h127.575c1.634 0 2.578-1.853 1.618-3.175L114.625 49.25 83.388 6.254a2 2 0 0 0-3.25.02l-39.4 55.57C39.8 63.167 40.733 65 42.357 65H81.75" stroke="#E75A12" stroke-width="10"/><path d="M4.2 110.148H2.28V114h-.864v-8.4h.864v3.768H4.2l2.844-3.768h.96l-3.12 4.08 3.3 4.32h-1.02L4.2 110.148zm9.021 3.924c-.832 0-1.588-.184-2.268-.552a4.175 4.175 0 0 1-1.584-1.536c-.376-.648-.564-1.376-.564-2.184 0-.808.188-1.536.564-2.184a4.087 4.087 0 0 1 1.584-1.524 4.608 4.608 0 0 1 2.268-.564c.832 0 1.58.184 2.244.552.672.368 1.2.88 1.584 1.536.384.648.576 1.376.576 2.184 0 .808-.192 1.54-.576 2.196a4.087 4.087 0 0 1-1.584 1.524c-.664.368-1.412.552-2.244.552zm0-.792a3.66 3.66 0 0 0 1.8-.444c.536-.304.956-.72 1.26-1.248a3.56 3.56 0 0 0 .456-1.788c0-.656-.152-1.248-.456-1.776a3.203 3.203 0 0 0-1.26-1.248 3.584 3.584 0 0 0-1.8-.456 3.65 3.65 0 0 0-1.812.456c-.536.296-.96.712-1.272 1.248a3.495 3.495 0 0 0-.456 1.776c0 .656.152 1.252.456 1.788a3.4 3.4 0 0 0 1.272 1.248 3.729 3.729 0 0 0 1.812.444zm15.247-7.68v8.4h-.852v-6.72l-3.3 5.652h-.42l-3.3-5.616V114h-.852v-8.4h.732l3.648 6.228 3.612-6.228h.732zm9.899 0v8.4h-.876v-7.632h-5.316V114h-.876v-8.4h7.068zm9.293 0v8.4h-.876v-7.632h-4.056l-.096 2.808c-.04 1.16-.136 2.096-.288 2.808-.144.704-.368 1.232-.672 1.584-.304.344-.708.516-1.212.516-.216 0-.44-.028-.672-.084l.072-.792c.136.032.268.048.396.048.352 0 .636-.14.852-.42.224-.28.392-.712.504-1.296.112-.592.188-1.372.228-2.34l.12-3.6h5.7zm8.774 7.632V114h-5.94v-8.4h5.76v.768h-4.872v2.988h4.344v.756h-4.344v3.12h5.052zm4.754-3.084h-1.92V114h-.864v-8.4h.864v3.768h1.92l2.844-3.768h.96l-3.12 4.08 3.3 4.32h-1.02l-2.964-3.852zm9.01 3.924c-.833 0-1.585-.184-2.257-.552a4.11 4.11 0 0 1-1.572-1.524 4.337 4.337 0 0 1-.564-2.196c0-.808.188-1.536.564-2.184a4.061 4.061 0 0 1 1.584-1.536c.672-.368 1.424-.552 2.256-.552.624 0 1.2.104 1.728.312.528.208.976.512 1.344.912l-.564.564c-.656-.664-1.484-.996-2.484-.996a3.65 3.65 0 0 0-1.812.456c-.544.304-.972.72-1.284 1.248a3.495 3.495 0 0 0-.456 1.776c0 .656.152 1.248.456 1.776.312.528.74.944 1.284 1.248a3.65 3.65 0 0 0 1.812.456c1.008 0 1.836-.336 2.484-1.008l.564.564c-.368.4-.82.708-1.356.924a4.674 4.674 0 0 1-1.728.312zm11.937-8.472v8.4h-.876v-3.876h-5.256V114h-.888v-8.4h.888v3.744h5.256V105.6h.876zm6.352 3c.992 0 1.748.224 2.268.672.528.448.792 1.104.792 1.968 0 .904-.28 1.592-.84 2.064-.552.464-1.352.696-2.4.696H84.97v-8.4h.876v3h2.64zm-.204 4.692c.776 0 1.364-.172 1.764-.516.408-.344.612-.852.612-1.524 0-1.288-.792-1.932-2.376-1.932h-2.436v3.972h2.436zm4.716-7.692h.876v8.4h-.876v-8.4zm3.702 0h.876v6.96l5.376-6.96h.804v8.4h-.876v-6.948L97.505 114h-.804v-8.4zm3.504-.612c-.6 0-1.076-.136-1.428-.408-.344-.272-.52-.652-.528-1.14h.66c.008.32.128.572.36.756.232.184.544.276.936.276.384 0 .692-.092.924-.276a.932.932 0 0 0 .372-.756h.66c-.008.488-.188.868-.54 1.14-.352.272-.824.408-1.416.408zm12.671.612c1.072 0 1.912.256 2.52.768.608.512.912 1.216.912 2.112 0 .896-.304 1.6-.912 2.112-.608.504-1.448.756-2.52.756h-2.256V114h-.888v-8.4h3.144zm-.024 4.968c.832 0 1.468-.18 1.908-.54.44-.368.66-.884.66-1.548 0-.68-.22-1.2-.66-1.56-.44-.368-1.076-.552-1.908-.552h-2.232v4.2h2.232zm11.223 2.664V114h-5.94v-8.4h5.76v.768h-4.872v2.988h4.344v.756h-4.344v3.12h5.052zm10.694-7.632v8.4h-.852v-6.72l-3.3 5.652h-.42l-3.3-5.616V114h-.852v-8.4h.732l3.648 6.228 3.612-6.228h.732zm6.515 8.472c-.832 0-1.588-.184-2.268-.552a4.175 4.175 0 0 1-1.584-1.536c-.376-.648-.564-1.376-.564-2.184 0-.808.188-1.536.564-2.184a4.087 4.087 0 0 1 1.584-1.524 4.608 4.608 0 0 1 2.268-.564c.832 0 1.58.184 2.244.552.672.368 1.2.88 1.584 1.536.384.648.576 1.376.576 2.184 0 .808-.192 1.54-.576 2.196a4.087 4.087 0 0 1-1.584 1.524c-.664.368-1.412.552-2.244.552zm0-.792a3.66 3.66 0 0 0 1.8-.444c.536-.304.956-.72 1.26-1.248a3.56 3.56 0 0 0 .456-1.788c0-.656-.152-1.248-.456-1.776a3.203 3.203 0 0 0-1.26-1.248 3.584 3.584 0 0 0-1.8-.456 3.65 3.65 0 0 0-1.812.456c-.536.296-.96.712-1.272 1.248a3.495 3.495 0 0 0-.456 1.776c0 .656.152 1.252.456 1.788a3.4 3.4 0 0 0 1.272 1.248 3.729 3.729 0 0 0 1.812.444zm13.543-7.68v8.4h-.876v-3.876h-5.256V114h-.888v-8.4h.888v3.744h5.256V105.6h.876zm8.331.768h-2.952V114h-.876v-7.632h-2.952v-.768h6.78v.768z" fill="#000"/></svg>