<svg xmlns="http://www.w3.org/2000/svg" viewBox="0 0 1368.6 114.46"><defs><style>.cls-1{fill:#171818}</style></defs><g id="Слой_2" data-name="Слой 2"><g id="Слой_1-2" data-name="Слой 1"><path class="cls-1" transform="rotate(-45 266.501 38.462)" d="M239.3 11.27h54.4v54.4h-54.4z"/><path class="cls-1" transform="rotate(-45 342.513 38.466)" d="M315.32 11.27h54.4v54.4h-54.4z"/><path class="cls-1" transform="rotate(-45 418.525 38.471)" d="M391.33 11.27h54.4v54.4h-54.4z"/><path class="cls-1" transform="rotate(-45 494.542 38.464)" d="M467.34 11.27h54.4v54.4h-54.4z"/><path class="cls-1" transform="rotate(-45 570.554 38.469)" d="M543.35 11.27h54.4v54.4h-54.4z"/><path class="cls-1" transform="rotate(-45 646.566 38.473)" d="M619.37 11.27h54.4v54.4h-54.4z"/><path class="cls-1" transform="rotate(-45 722.583 38.466)" d="M695.38 11.27h54.4v54.4h-54.4z"/><path class="cls-1" transform="rotate(-45 798.595 38.471)" d="M771.39 11.27h54.4v54.4h-54.4z"/><path class="cls-1" transform="rotate(-45 874.595 38.47)" d="M847.4 11.27h54.4v54.4h-54.4z"/><path class="cls-1" transform="rotate(-45 38.472 38.464)" d="M11.27 11.27h54.4v54.4h-54.4z"/><path class="cls-1" transform="rotate(-45 114.484 38.469)" d="M87.28 11.27h54.4v54.4h-54.4z"/><path class="cls-1" transform="rotate(-45 190.496 38.474)" d="M163.29 11.27h54.4v54.4h-54.4z"/><path class="cls-1" transform="rotate(-45 1177.82 38.46)" d="M1150.62 11.27h54.4v54.4h-54.4z"/><path class="cls-1" transform="rotate(-45 1253.833 38.465)" d="M1226.63 11.27h54.4v54.4h-54.4z"/><path class="cls-1" transform="rotate(-45 1329.845 38.47)" d="M1302.65 11.27h54.4v54.4h-54.4z"/><path class="cls-1" transform="rotate(-45 949.787 38.475)" d="M922.58 11.27h54.4v54.4h-54.4z"/><path class="cls-1" transform="rotate(-45 1025.804 38.468)" d="M998.6 11.27h54.4v54.4h-54.4z"/><path class="cls-1" transform="rotate(-45 1101.804 38.468)" d="M1074.61 11.27h54.4v54.4h-54.4z"/><path class="cls-1" d="M38.47 76L0 114.46h76.94L38.47 76z"/><path class="cls-1" d="M114.45 76l-38.47 38.46h76.94L114.45 76z"/><path class="cls-1" d="M190.43 76l-38.47 38.46h76.94L190.43 76z"/><path class="cls-1" d="M266.41 76l-38.47 38.46h76.94L266.41 76z"/><path class="cls-1" d="M342.39 76l-38.47 38.46h76.94L342.39 76z"/><path class="cls-1" d="M418.37 76l-38.47 38.46h76.94L418.37 76z"/><path class="cls-1" d="M494.35 76l-38.47 38.46h76.94L494.35 76z"/><path class="cls-1" d="M570.33 76l-38.47 38.46h76.94L570.33 76z"/><path class="cls-1" d="M646.31 76l-38.47 38.46h76.94L646.31 76z"/><path class="cls-1" d="M722.29 76l-38.47 38.46h76.94L722.29 76z"/><path class="cls-1" d="M798.27 76l-38.47 38.46h76.94L798.27 76z"/><path class="cls-1" d="M874.25 76l-38.47 38.46h76.94L874.25 76z"/><path class="cls-1" d="M950.23 76l-38.47 38.46h76.94L950.23 76z"/><path class="cls-1" d="M1026.21 76l-38.47 38.46h76.94L1026.21 76z"/><path class="cls-1" d="M1102.19 76l-38.47 38.46h76.94L1102.19 76z"/><path class="cls-1" d="M1178.17 76l-38.47 38.46h76.94L1178.17 76z"/><path class="cls-1" d="M1254.15 76l-38.47 38.46h76.94L1254.15 76z"/><path class="cls-1" d="M1330.13 76l-38.47 38.46h76.94L1330.13 76z"/></g></g></svg>