<?xml version="1.0" encoding="iso-8859-1"?>
<!-- Generator: Adobe Illustrator 22.1.0, SVG Export Plug-In . SVG Version: 6.00 Build 0)  -->
<svg xmlns="http://www.w3.org/2000/svg" xmlns:xlink="http://www.w3.org/1999/xlink" version="1.1" id="Layer_1_1_" x="0px" y="0px" viewBox="0 0 64 64" style="enable-background:new 0 0 64 64;" xml:space="preserve" width="512" height="512">
<g>
	<path d="M25,32.848l-8,4.572v9.16l8,4.572l8-4.572v-9.16L25,32.848z M31,45.42l-6,3.428l-6-3.428v-6.84l6-3.428l6,3.428V45.42z"/>
	<rect x="21" y="39" width="8" height="2"/>
	<rect x="21" y="43" width="8" height="2"/>
	<path d="M45,33.719l-6,4.8v6.961l6,4.8l6-4.8V38.52L45,33.719z M49,44.52l-4,3.2l-4-3.2V39.48l4-3.2l4,3.2V44.52z"/>
	<path d="M49.746,17.827L52,12.192V7H38v5.192l2.254,5.635c-0.655,0.302-1.268,0.677-1.827,1.12   c-1.198-1.431-2.72-2.525-4.427-3.192V7h1c1.654,0,3-1.346,3-3s-1.346-3-3-3H15c-1.654,0-3,1.346-3,3s1.346,3,3,3h1v8.764   C11.909,17.369,9,21.347,9,26v30c0,3.86,3.14,7,7,7h18c1.442,0,2.832-0.447,4.001-1.263C39.136,62.531,40.513,63,42,63h6   c3.86,0,7-3.14,7-7V26C55,22.375,52.841,19.252,49.746,17.827z M52.92,25H37.08c0.488-3.387,3.401-6,6.92-6h2   C49.519,19,52.432,21.613,52.92,25z M11,55V29h24v26H11z M11.059,25h24C35.022,25.329,35,25.662,35,26v1H11v-1   C11,25.662,11.022,25.329,11.059,25z M37,27h16v26H37V27z M40,11.808V9h10v2.808l-2.154,5.384C47.25,17.067,46.633,17,46,17v-4h2   v-2h-6v2h2v4c-0.633,0-1.25,0.067-1.846,0.192L40,11.808z M14,4c0-0.551,0.449-1,1-1h20c0.551,0,1,0.449,1,1s-0.449,1-1,1H15   C14.449,5,14,4.551,14,4z M18,7h14v8.204C31.345,15.082,30.679,15,30,15h-4v-1.184c1.161-0.414,2-1.514,2-2.816   c0-1.654-1.346-3-3-3s-3,1.346-3,3c0,1.302,0.839,2.402,2,2.816V15h-4c-0.684,0-1.35,0.071-2,0.191V7z M24,11c0-0.551,0.449-1,1-1   s1,0.449,1,1s-0.449,1-1,1S24,11.551,24,11z M20,17h10c2.737,0,5.293,1.25,6.996,3.361c-0.631,0.782-1.128,1.674-1.471,2.639h-24   C12.765,19.51,16.091,17,20,17z M16,61c-2.414,0-4.434-1.721-4.899-4H35.08c0.179,1.241,0.681,2.377,1.423,3.319   C35.747,60.757,34.888,61,34,61H16z M48,61h-6c-2.757,0-5-2.243-5-5v-1h16v1C53,58.757,50.757,61,48,61z"/>
</g>
</svg>
