<?xml version="1.0" encoding="iso-8859-1"?>
<!-- Generator: Adobe Illustrator 19.0.0, SVG Export Plug-In . SVG Version: 6.00 Build 0)  -->
<svg version="1.1" id="Layer_1" xmlns="http://www.w3.org/2000/svg" xmlns:xlink="http://www.w3.org/1999/xlink" x="0px" y="0px"
	 viewBox="0 0 512 512" style="enable-background:new 0 0 512 512;" xml:space="preserve">
<g>
	<g>
		<path d="M504.396,131.706c4.2,0,7.604-3.405,7.604-7.604V52.726C512,23.652,488.348,0,459.274,0H52.726
			C23.652,0,0,23.652,0,52.726v406.548C0,488.348,23.652,512,52.726,512h406.548C488.348,512,512,488.348,512,459.274V149.448
			c0-4.199-3.404-7.604-7.604-7.604s-7.604,3.405-7.604,7.604v309.826c0,20.688-16.831,37.518-37.518,37.518H52.726
			c-20.688,0-37.518-16.83-37.518-37.518V52.726c0-20.688,16.83-37.518,37.518-37.518h406.548c20.687,0,37.518,16.83,37.518,37.518
			v71.376C496.792,128.301,500.196,131.706,504.396,131.706z"/>
	</g>
</g>
<g>
	<g>
		<path d="M256,48.831C141.766,48.831,48.831,141.766,48.831,256c0,43.82,13.513,85.703,39.077,121.122
			c2.459,3.405,7.211,4.175,10.616,1.715c3.405-2.458,4.173-7.211,1.715-10.616c-5.23-7.246-9.915-14.786-14.041-22.573
			c10.172,1.257,19.659,1.833,28.46,1.833c35.343,0,59.87-9.012,75.495-17.956c14.02-8.025,22.99-17.052,28.066-23.241
			c8.917,6.717,19.668,11.123,31.357,12.313c0.746,6.365,1.099,18.137-3.098,32.964c-8.253,29.16-30.428,57.347-64.231,81.711
			c-1.235-0.515-2.469-1.033-3.695-1.575c-23.617-10.426-44.603-25.288-62.374-44.172c-2.878-3.059-7.69-3.206-10.749-0.326
			c-3.059,2.878-3.205,7.69-0.326,10.749c19.173,20.375,41.819,36.411,67.307,47.664c26.39,11.65,54.513,17.557,83.59,17.557
			c114.234,0,207.17-92.937,207.17-207.169S370.234,48.831,256,48.831z M425.688,166.333c-50.969-6.277-84.338,4.978-103.843,16.141
			c-14.02,8.024-22.991,17.052-28.066,23.241c-8.923-6.72-19.681-11.128-31.378-12.314c-1.873-15.781-1.225-65.258,67.308-114.636
			C370.921,95.966,404.893,127.138,425.688,166.333z M182.795,78.556C205.367,69.209,230.09,64.038,256,64.038
			c19.705,0.001,38.725,2.99,56.635,8.531c-40.517,31.613-56.166,63.187-62.067,84.88c-4.236,15.575-4.199,28.295-3.414,36.261
			c-11.598,1.639-22.189,6.445-30.865,13.522C203.833,197.43,169.241,161.998,182.795,78.556z M166.333,86.312
			c-6.278,50.967,4.978,84.338,16.141,103.842c8.024,14.02,17.052,22.991,23.241,28.067c-6.716,8.917-11.123,19.667-12.313,31.357
			c-6.364,0.744-18.136,1.097-32.963-3.099c-29.145-8.25-57.321-30.408-81.677-64.183
			C95.964,141.082,127.137,107.108,166.333,86.312z M78.458,329.189C68.958,306.186,64.04,281.447,64.04,256
			c0-19.705,2.989-38.725,8.53-56.634c31.613,40.516,63.187,56.166,84.88,62.067c10.823,2.943,20.267,3.824,27.696,3.824
			c3.264,0,6.133-0.17,8.565-0.411c1.639,11.598,6.445,22.189,13.523,30.865C197.427,308.172,161.97,342.788,78.458,329.189z
			 M208.284,256c0-26.312,21.406-47.716,47.716-47.716c26.311,0,47.716,21.406,47.716,47.716c0,26.311-21.406,47.717-47.716,47.717
			C229.688,303.717,208.284,282.312,208.284,256z M329.206,433.444c-22.573,9.347-47.295,14.518-73.206,14.518
			c-19.445-0.001-38.421-2.865-56.668-8.505c40.54-31.621,56.197-63.206,62.099-84.905c4.236-15.575,4.199-28.295,3.414-36.261
			c11.599-1.639,22.189-6.445,30.865-13.523C308.167,314.57,342.76,350.003,329.206,433.444z M345.668,425.688
			c6.278-50.967-4.978-84.338-16.141-103.842c-8.024-14.02-17.052-22.991-23.241-28.067c6.721-8.923,11.128-19.681,12.314-31.379
			c15.782-1.873,65.26-1.224,114.636,67.309C416.034,370.921,384.862,404.893,345.668,425.688z M354.552,250.569
			c-15.576-4.236-28.295-4.199-36.261-3.415c-1.639-11.598-6.445-22.188-13.522-30.864c9.802-12.457,45.237-47.05,128.675-33.496
			c9.347,22.573,14.518,47.295,14.518,73.206c-0.001,19.706-2.99,38.725-8.531,56.635
			C407.819,272.119,376.245,256.469,354.552,250.569z"/>
	</g>
</g>
<g>
	<g>
		<path d="M452.552,34.356c-13.835,0-25.092,11.257-25.092,25.092s11.257,25.092,25.092,25.092s25.092-11.257,25.092-25.092
			S466.388,34.356,452.552,34.356z M452.552,69.332c-5.451,0-9.884-4.435-9.884-9.884c0-5.449,4.434-9.884,9.884-9.884
			s9.884,4.435,9.884,9.884C462.436,64.897,458.003,69.332,452.552,69.332z"/>
	</g>
</g>
<g>
	<g>
		<path d="M452.552,427.46c-13.835,0-25.092,11.257-25.092,25.092c0,13.836,11.257,25.093,25.092,25.093
			s25.092-11.257,25.092-25.093C477.644,438.717,466.387,427.46,452.552,427.46z M452.552,462.437c-5.451,0-9.884-4.435-9.884-9.885
			c0-5.45,4.434-9.884,9.884-9.884s9.884,4.435,9.884,9.884C462.436,458.003,458.003,462.437,452.552,462.437z"/>
	</g>
</g>
<g>
	<g>
		<path d="M59.448,427.46c-13.835,0-25.092,11.257-25.092,25.092c0,13.836,11.256,25.093,25.092,25.093s25.093-11.257,25.093-25.093
			C84.541,438.717,73.284,427.46,59.448,427.46z M59.448,462.437c-5.45,0-9.884-4.435-9.884-9.885c0-5.45,4.434-9.884,9.884-9.884
			s9.885,4.435,9.885,9.884C69.333,458.003,64.898,462.437,59.448,462.437z"/>
	</g>
</g>
<g>
	<g>
		<path d="M59.448,34.356c-13.835,0-25.092,11.257-25.092,25.092S45.612,84.54,59.448,84.54s25.093-11.257,25.093-25.092
			S73.284,34.356,59.448,34.356z M59.448,69.332c-5.45,0-9.884-4.435-9.884-9.884c0-5.449,4.434-9.884,9.884-9.884
			s9.885,4.435,9.885,9.884C69.333,64.897,64.898,69.332,59.448,69.332z"/>
	</g>
</g>
<g>
</g>
<g>
</g>
<g>
</g>
<g>
</g>
<g>
</g>
<g>
</g>
<g>
</g>
<g>
</g>
<g>
</g>
<g>
</g>
<g>
</g>
<g>
</g>
<g>
</g>
<g>
</g>
<g>
</g>
</svg>
